<?xml version="1.0" encoding="UTF-8" standalone="no"?>
<!DOCTYPE svg PUBLIC "-//W3C//DTD SVG 1.1//EN"
 "http://www.w3.org/Graphics/SVG/1.1/DTD/svg11.dtd">
<!-- Generated by graphviz version 2.40.1 (20161225.0304)
 -->
<!-- Pages: 1 -->
<svg width="352pt" height="980pt"
 viewBox="0.00 0.00 352.26 980.00" xmlns="http://www.w3.org/2000/svg" xmlns:xlink="http://www.w3.org/1999/xlink">
<g id="graph0" class="graph" transform="scale(1 1) rotate(0) translate(4 976)">
<polygon fill="#ffffff" stroke="transparent" points="-4,4 -4,-976 348.2615,-976 348.2615,4 -4,4"/>
<!-- bash -->
<g id="node1" class="node">
<title>bash</title>
<ellipse fill="none" stroke="#000000" cx="230.2615" cy="-882" rx="28.9735" ry="18"/>
<text text-anchor="middle" x="230.2615" y="-877.8" font-family="Times,serif" font-size="14.00" fill="#000000">bash</text>
</g>
<!-- build&#45;base -->
<g id="node2" class="node">
<title>build&#45;base</title>
<ellipse fill="none" stroke="#000000" cx="51.2615" cy="-666" rx="51.0242" ry="18"/>
<text text-anchor="middle" x="51.2615" y="-661.8" font-family="Times,serif" font-size="14.00" fill="#000000">build&#45;base</text>
</g>
<!-- bash&#45;&gt;build&#45;base -->
<g id="edge1" class="edge">
<title>bash&#45;&gt;build&#45;base</title>
<path fill="none" stroke="#000000" d="M203.1501,-875.7765C164.2478,-866.2931 95.479,-847.2833 79.2615,-828 47.5459,-790.2886 45.8729,-729.7654 48.1462,-694.3486"/>
<polygon fill="#000000" stroke="#000000" points="51.6481,-694.4616 48.9495,-684.2163 44.67,-693.9083 51.6481,-694.4616"/>
</g>
<!-- busybox -->
<g id="node3" class="node">
<title>busybox</title>
<ellipse fill="none" stroke="#000000" cx="202.2615" cy="-594" rx="43.5271" ry="18"/>
<text text-anchor="middle" x="202.2615" y="-589.8" font-family="Times,serif" font-size="14.00" fill="#000000">busybox</text>
</g>
<!-- bash&#45;&gt;busybox -->
<g id="edge2" class="edge">
<title>bash&#45;&gt;busybox</title>
<path fill="none" stroke="#000000" d="M228.51,-863.9843C223.7762,-815.2939 210.7001,-680.7961 204.9893,-622.0573"/>
<polygon fill="#000000" stroke="#000000" points="208.4637,-621.6232 204.0124,-612.0089 201.4966,-622.3007 208.4637,-621.6232"/>
</g>
<!-- ca&#45;certificates&#45;bundle -->
<g id="node4" class="node">
<title>ca&#45;certificates&#45;bundle</title>
<ellipse fill="none" stroke="#000000" cx="207.2615" cy="-522" rx="94.8548" ry="18"/>
<text text-anchor="middle" x="207.2615" y="-517.8" font-family="Times,serif" font-size="14.00" fill="#000000">ca&#45;certificates&#45;bundle</text>
</g>
<!-- bash&#45;&gt;ca&#45;certificates&#45;bundle -->
<g id="edge3" class="edge">
<title>bash&#45;&gt;ca&#45;certificates&#45;bundle</title>
<path fill="none" stroke="#000000" d="M236.8458,-864.3441C253.7301,-816.2098 294.5672,-679.3818 255.2615,-576 251.1661,-565.2281 243.8278,-555.2328 236.1019,-546.8441"/>
<polygon fill="#000000" stroke="#000000" points="238.4913,-544.2823 228.9796,-539.6157 233.5051,-549.1954 238.4913,-544.2823"/>
</g>
<!-- ncurses&#45;dev -->
<g id="node5" class="node">
<title>ncurses&#45;dev</title>
<ellipse fill="none" stroke="#000000" cx="145.2615" cy="-810" rx="57.303" ry="18"/>
<text text-anchor="middle" x="145.2615" y="-805.8" font-family="Times,serif" font-size="14.00" fill="#000000">ncurses&#45;dev</text>
</g>
<!-- bash&#45;&gt;ncurses&#45;dev -->
<g id="edge4" class="edge">
<title>bash&#45;&gt;ncurses&#45;dev</title>
<path fill="none" stroke="#000000" d="M213.0605,-867.4297C201.6515,-857.7656 186.4182,-844.8621 173.2813,-833.7344"/>
<polygon fill="#000000" stroke="#000000" points="175.3183,-830.8729 165.4256,-827.0801 170.7938,-836.2143 175.3183,-830.8729"/>
</g>
<!-- build&#45;base&#45;&gt;busybox -->
<g id="edge5" class="edge">
<title>build&#45;base&#45;&gt;busybox</title>
<path fill="none" stroke="#000000" d="M81.8186,-651.4297C105.5837,-640.0981 138.6893,-624.3126 164.1793,-612.1584"/>
<polygon fill="#000000" stroke="#000000" points="166.0204,-615.1581 173.5403,-607.6949 163.0075,-608.8397 166.0204,-615.1581"/>
</g>
<!-- wolfi&#45;baselayout -->
<g id="node6" class="node">
<title>wolfi&#45;baselayout</title>
<ellipse fill="none" stroke="#000000" cx="89.2615" cy="-18" rx="75.8605" ry="18"/>
<text text-anchor="middle" x="89.2615" y="-13.8" font-family="Times,serif" font-size="14.00" fill="#000000">wolfi&#45;baselayout</text>
</g>
<!-- build&#45;base&#45;&gt;wolfi&#45;baselayout -->
<g id="edge6" class="edge">
<title>build&#45;base&#45;&gt;wolfi&#45;baselayout</title>
<path fill="none" stroke="#000000" d="M51.2615,-647.8146C51.2615,-620.4983 51.2615,-567.25 51.2615,-522 51.2615,-522 51.2615,-522 51.2615,-162 51.2615,-120.3681 66.2943,-74.14 77.4497,-45.567"/>
<polygon fill="#000000" stroke="#000000" points="80.7193,-46.817 81.2027,-36.2332 74.2247,-44.2055 80.7193,-46.817"/>
</g>
<!-- busybox&#45;&gt;ca&#45;certificates&#45;bundle -->
<g id="edge7" class="edge">
<title>busybox&#45;&gt;ca&#45;certificates&#45;bundle</title>
<path fill="none" stroke="#000000" d="M203.5233,-575.8314C204.058,-568.131 204.6939,-558.9743 205.2882,-550.4166"/>
<polygon fill="#000000" stroke="#000000" points="208.7816,-550.6317 205.9828,-540.4133 201.7984,-550.1467 208.7816,-550.6317"/>
</g>
<!-- ca&#45;certificates -->
<g id="node7" class="node">
<title>ca&#45;certificates</title>
<ellipse fill="none" stroke="#000000" cx="207.2615" cy="-450" rx="65.3568" ry="18"/>
<text text-anchor="middle" x="207.2615" y="-445.8" font-family="Times,serif" font-size="14.00" fill="#000000">ca&#45;certificates</text>
</g>
<!-- ca&#45;certificates&#45;bundle&#45;&gt;ca&#45;certificates -->
<g id="edge10" class="edge">
<title>ca&#45;certificates&#45;bundle&#45;&gt;ca&#45;certificates</title>
<path fill="none" stroke="#000000" d="M207.2615,-503.8314C207.2615,-496.131 207.2615,-486.9743 207.2615,-478.4166"/>
<polygon fill="#000000" stroke="#000000" points="210.7616,-478.4132 207.2615,-468.4133 203.7616,-478.4133 210.7616,-478.4132"/>
</g>
<!-- ncurses -->
<g id="node11" class="node">
<title>ncurses</title>
<ellipse fill="none" stroke="#000000" cx="137.2615" cy="-738" rx="39.9857" ry="18"/>
<text text-anchor="middle" x="137.2615" y="-733.8" font-family="Times,serif" font-size="14.00" fill="#000000">ncurses</text>
</g>
<!-- ncurses&#45;dev&#45;&gt;ncurses -->
<g id="edge18" class="edge">
<title>ncurses&#45;dev&#45;&gt;ncurses</title>
<path fill="none" stroke="#000000" d="M143.2428,-791.8314C142.3872,-784.131 141.3698,-774.9743 140.4189,-766.4166"/>
<polygon fill="#000000" stroke="#000000" points="143.8905,-765.9656 139.3075,-756.4133 136.9333,-766.7386 143.8905,-765.9656"/>
</g>
<!-- openssl&#45;dev -->
<g id="node8" class="node">
<title>openssl&#45;dev</title>
<ellipse fill="none" stroke="#000000" cx="228.2615" cy="-378" rx="57.3243" ry="18"/>
<text text-anchor="middle" x="228.2615" y="-373.8" font-family="Times,serif" font-size="14.00" fill="#000000">openssl&#45;dev</text>
</g>
<!-- ca&#45;certificates&#45;&gt;openssl&#45;dev -->
<g id="edge8" class="edge">
<title>ca&#45;certificates&#45;&gt;openssl&#45;dev</title>
<path fill="none" stroke="#000000" d="M212.5607,-431.8314C214.8314,-424.0463 217.5361,-414.7729 220.0556,-406.1347"/>
<polygon fill="#000000" stroke="#000000" points="223.4509,-406.9933 222.891,-396.4133 216.7309,-405.0332 223.4509,-406.9933"/>
</g>
<!-- perl -->
<g id="node9" class="node">
<title>perl</title>
<ellipse fill="none" stroke="#000000" cx="154.2615" cy="-234" rx="27" ry="18"/>
<text text-anchor="middle" x="154.2615" y="-229.8" font-family="Times,serif" font-size="14.00" fill="#000000">perl</text>
</g>
<!-- ca&#45;certificates&#45;&gt;perl -->
<g id="edge9" class="edge">
<title>ca&#45;certificates&#45;&gt;perl</title>
<path fill="none" stroke="#000000" d="M187.6292,-432.5033C178.1474,-422.7839 167.6737,-409.8697 162.2615,-396 145.0636,-351.9268 146.9934,-295.9283 150.3518,-262.6397"/>
<polygon fill="#000000" stroke="#000000" points="153.8783,-262.6002 151.5199,-252.2712 146.9223,-261.8164 153.8783,-262.6002"/>
</g>
<!-- openssl -->
<g id="node12" class="node">
<title>openssl</title>
<ellipse fill="none" stroke="#000000" cx="219.2615" cy="-306" rx="40.007" ry="18"/>
<text text-anchor="middle" x="219.2615" y="-301.8" font-family="Times,serif" font-size="14.00" fill="#000000">openssl</text>
</g>
<!-- openssl&#45;dev&#45;&gt;openssl -->
<g id="edge20" class="edge">
<title>openssl&#45;dev&#45;&gt;openssl</title>
<path fill="none" stroke="#000000" d="M225.9905,-359.8314C225.0279,-352.131 223.8833,-342.9743 222.8136,-334.4166"/>
<polygon fill="#000000" stroke="#000000" points="226.2766,-333.9019 221.5632,-324.4133 219.3307,-334.7702 226.2766,-333.9019"/>
</g>
<!-- perl&#45;&gt;wolfi&#45;baselayout -->
<g id="edge21" class="edge">
<title>perl&#45;&gt;wolfi&#45;baselayout</title>
<path fill="none" stroke="#000000" d="M137.8276,-219.6484C127.5197,-209.6337 114.9556,-195.353 108.2615,-180 89.1959,-136.2724 86.9948,-79.9457 87.7189,-46.5357"/>
<polygon fill="#000000" stroke="#000000" points="91.2301,-46.2436 88.0565,-36.1353 84.2338,-46.0164 91.2301,-46.2436"/>
</g>
<!-- zlib&#45;dev -->
<g id="node13" class="node">
<title>zlib&#45;dev</title>
<ellipse fill="none" stroke="#000000" cx="160.2615" cy="-162" rx="42.8557" ry="18"/>
<text text-anchor="middle" x="160.2615" y="-157.8" font-family="Times,serif" font-size="14.00" fill="#000000">zlib&#45;dev</text>
</g>
<!-- perl&#45;&gt;zlib&#45;dev -->
<g id="edge22" class="edge">
<title>perl&#45;&gt;zlib&#45;dev</title>
<path fill="none" stroke="#000000" d="M155.7756,-215.8314C156.4173,-208.131 157.1803,-198.9743 157.8935,-190.4166"/>
<polygon fill="#000000" stroke="#000000" points="161.3845,-190.6694 158.7271,-180.4133 154.4086,-190.088 161.3845,-190.6694"/>
</g>
<!-- go -->
<g id="node10" class="node">
<title>go</title>
<ellipse fill="none" stroke="#000000" cx="268.2615" cy="-954" rx="27" ry="18"/>
<text text-anchor="middle" x="268.2615" y="-949.8" font-family="Times,serif" font-size="14.00" fill="#000000">go</text>
</g>
<!-- go&#45;&gt;bash -->
<g id="edge11" class="edge">
<title>go&#45;&gt;bash</title>
<path fill="none" stroke="#000000" d="M259.2561,-936.937C254.7788,-928.4537 249.2664,-918.0092 244.2545,-908.513"/>
<polygon fill="#000000" stroke="#000000" points="247.2293,-906.6509 239.4663,-899.4407 241.0386,-909.9182 247.2293,-906.6509"/>
</g>
<!-- go&#45;&gt;build&#45;base -->
<g id="edge12" class="edge">
<title>go&#45;&gt;build&#45;base</title>
<path fill="none" stroke="#000000" d="M243.1286,-946.8109C197.7157,-932.4164 102.4264,-895.5009 56.2615,-828 28.9102,-788.0077 36.0903,-728.5247 43.7234,-693.8628"/>
<polygon fill="#000000" stroke="#000000" points="47.1718,-694.4888 46.0691,-683.9515 40.36,-692.8766 47.1718,-694.4888"/>
</g>
<!-- go&#45;&gt;busybox -->
<g id="edge13" class="edge">
<title>go&#45;&gt;busybox</title>
<path fill="none" stroke="#000000" d="M275.9514,-936.6554C287.0551,-909.9874 306.2615,-857.0576 306.2615,-810 306.2615,-810 306.2615,-810 306.2615,-738 306.2615,-686.9029 262.6939,-641.6256 231.9561,-616.04"/>
<polygon fill="#000000" stroke="#000000" points="234.0413,-613.2251 224.0634,-609.6625 229.6418,-618.6698 234.0413,-613.2251"/>
</g>
<!-- go&#45;&gt;ca&#45;certificates&#45;bundle -->
<g id="edge14" class="edge">
<title>go&#45;&gt;ca&#45;certificates&#45;bundle</title>
<path fill="none" stroke="#000000" d="M282.9151,-938.5784C304.9998,-913.6483 344.2615,-862.0136 344.2615,-810 344.2615,-810 344.2615,-810 344.2615,-666 344.2615,-610.6612 290.4974,-568.1451 250.3301,-544.1033"/>
<polygon fill="#000000" stroke="#000000" points="251.8851,-540.959 241.479,-538.9679 248.3721,-547.0137 251.8851,-540.959"/>
</g>
<!-- ncurses&#45;&gt;build&#45;base -->
<g id="edge15" class="edge">
<title>ncurses&#45;&gt;build&#45;base</title>
<path fill="none" stroke="#000000" d="M118.1754,-722.0209C106.7281,-712.4371 91.9654,-700.0777 79.22,-689.4071"/>
<polygon fill="#000000" stroke="#000000" points="81.1053,-686.4208 71.1909,-682.6851 76.6117,-691.7881 81.1053,-686.4208"/>
</g>
<!-- ncurses&#45;&gt;busybox -->
<g id="edge16" class="edge">
<title>ncurses&#45;&gt;busybox</title>
<path fill="none" stroke="#000000" d="M145.2318,-720.3428C156.4401,-695.5122 176.954,-650.066 190.0814,-620.9836"/>
<polygon fill="#000000" stroke="#000000" points="193.3019,-622.3561 194.2261,-611.8017 186.9218,-619.4762 193.3019,-622.3561"/>
</g>
<!-- ncurses&#45;&gt;ca&#45;certificates&#45;bundle -->
<g id="edge17" class="edge">
<title>ncurses&#45;&gt;ca&#45;certificates&#45;bundle</title>
<path fill="none" stroke="#000000" d="M134.4954,-719.8993C130.6013,-688.7607 126.3183,-623.7987 149.2615,-576 154.7499,-564.5658 163.8068,-554.3641 173.1503,-545.99"/>
<polygon fill="#000000" stroke="#000000" points="175.5901,-548.5115 180.9943,-539.3986 171.0867,-543.1524 175.5901,-548.5115"/>
</g>
<!-- openssl&#45;&gt;perl -->
<g id="edge19" class="edge">
<title>openssl&#45;&gt;perl</title>
<path fill="none" stroke="#000000" d="M204.1859,-289.3008C195.5789,-279.7669 184.6571,-267.6689 175.225,-257.221"/>
<polygon fill="#000000" stroke="#000000" points="177.6646,-254.7003 168.3656,-249.6229 172.4687,-259.391 177.6646,-254.7003"/>
</g>
<!-- zlib -->
<g id="node14" class="node">
<title>zlib</title>
<ellipse fill="none" stroke="#000000" cx="152.2615" cy="-90" rx="27" ry="18"/>
<text text-anchor="middle" x="152.2615" y="-85.8" font-family="Times,serif" font-size="14.00" fill="#000000">zlib</text>
</g>
<!-- zlib&#45;dev&#45;&gt;zlib -->
<g id="edge24" class="edge">
<title>zlib&#45;dev&#45;&gt;zlib</title>
<path fill="none" stroke="#000000" d="M158.2428,-143.8314C157.3872,-136.131 156.3698,-126.9743 155.4189,-118.4166"/>
<polygon fill="#000000" stroke="#000000" points="158.8905,-117.9656 154.3075,-108.4133 151.9333,-118.7386 158.8905,-117.9656"/>
</g>
<!-- zlib&#45;&gt;wolfi&#45;baselayout -->
<g id="edge23" class="edge">
<title>zlib&#45;&gt;wolfi&#45;baselayout</title>
<path fill="none" stroke="#000000" d="M138.5915,-74.3771C130.6898,-65.3466 120.5563,-53.7654 111.5315,-43.4514"/>
<polygon fill="#000000" stroke="#000000" points="114.1207,-41.0954 104.9016,-35.8744 108.8527,-45.7049 114.1207,-41.0954"/>
</g>
</g>
</svg>
