<?xml version="1.0" encoding="UTF-8" standalone="no"?>
<!DOCTYPE svg PUBLIC "-//W3C//DTD SVG 1.1//EN"
 "http://www.w3.org/Graphics/SVG/1.1/DTD/svg11.dtd">
<!-- Generated by graphviz version 2.40.1 (20161225.0304)
 -->
<!-- Pages: 1 -->
<svg width="330pt" height="116pt"
 viewBox="0.00 0.00 330.38 116.00" xmlns="http://www.w3.org/2000/svg" xmlns:xlink="http://www.w3.org/1999/xlink">
<g id="graph0" class="graph" transform="scale(1 1) rotate(0) translate(4 112)">
<polygon fill="#ffffff" stroke="transparent" points="-4,4 -4,-112 326.3767,-112 326.3767,4 -4,4"/>
<!-- git&#45;lfs -->
<g id="node1" class="node">
<title>git&#45;lfs</title>
<ellipse fill="none" stroke="#000000" cx="34.1012" cy="-90" rx="34.2026" ry="18"/>
<text text-anchor="middle" x="34.1012" y="-85.8" font-family="Times,serif" font-size="14.00" fill="#000000">git&#45;lfs</text>
</g>
<!-- go -->
<g id="node2" class="node">
<title>go</title>
<ellipse fill="none" stroke="#000000" cx="168.1012" cy="-18" rx="27" ry="18"/>
<text text-anchor="middle" x="168.1012" y="-13.8" font-family="Times,serif" font-size="14.00" fill="#000000">go</text>
</g>
<!-- git&#45;lfs&#45;&gt;go -->
<g id="edge1" class="edge">
<title>git&#45;lfs&#45;&gt;go</title>
<path fill="none" stroke="#000000" d="M58.0577,-77.1278C80.3875,-65.1297 113.7791,-47.188 137.9205,-34.2165"/>
<polygon fill="#000000" stroke="#000000" points="139.8455,-37.1555 146.9978,-29.3391 136.5322,-30.9892 139.8455,-37.1555"/>
</g>
<!-- go&#45;doc -->
<g id="node3" class="node">
<title>go&#45;doc</title>
<ellipse fill="none" stroke="#000000" cx="124.1012" cy="-90" rx="37.7044" ry="18"/>
<text text-anchor="middle" x="124.1012" y="-85.8" font-family="Times,serif" font-size="14.00" fill="#000000">go&#45;doc</text>
</g>
<!-- go&#45;doc&#45;&gt;go -->
<g id="edge2" class="edge">
<title>go&#45;doc&#45;&gt;go</title>
<path fill="none" stroke="#000000" d="M134.7523,-72.5708C140.0719,-63.8661 146.6105,-53.1665 152.4845,-43.5546"/>
<polygon fill="#000000" stroke="#000000" points="155.623,-45.1308 157.851,-34.7729 149.65,-41.4807 155.623,-45.1308"/>
</g>
<!-- grype -->
<g id="node4" class="node">
<title>grype</title>
<ellipse fill="none" stroke="#000000" cx="213.1012" cy="-90" rx="33.0469" ry="18"/>
<text text-anchor="middle" x="213.1012" y="-85.8" font-family="Times,serif" font-size="14.00" fill="#000000">grype</text>
</g>
<!-- grype&#45;&gt;go -->
<g id="edge3" class="edge">
<title>grype&#45;&gt;go</title>
<path fill="none" stroke="#000000" d="M202.4368,-72.937C196.9447,-64.1496 190.1373,-53.2579 184.0359,-43.4956"/>
<polygon fill="#000000" stroke="#000000" points="186.957,-41.5655 178.689,-34.9405 181.021,-45.2755 186.957,-41.5655"/>
</g>
<!-- trivy -->
<g id="node5" class="node">
<title>trivy</title>
<ellipse fill="none" stroke="#000000" cx="293.1012" cy="-90" rx="29.0529" ry="18"/>
<text text-anchor="middle" x="293.1012" y="-85.8" font-family="Times,serif" font-size="14.00" fill="#000000">trivy</text>
</g>
<!-- trivy&#45;&gt;go -->
<g id="edge4" class="edge">
<title>trivy&#45;&gt;go</title>
<path fill="none" stroke="#000000" d="M271.6129,-77.6228C251.2445,-65.8906 220.4716,-48.1654 197.7693,-35.0889"/>
<polygon fill="#000000" stroke="#000000" points="199.3059,-31.9349 188.8937,-29.9765 195.812,-38.0006 199.3059,-31.9349"/>
</g>
</g>
</svg>
