<?xml version="1.0" encoding="UTF-8" standalone="no"?>
<!DOCTYPE svg PUBLIC "-//W3C//DTD SVG 1.1//EN"
 "http://www.w3.org/Graphics/SVG/1.1/DTD/svg11.dtd">
<!-- Generated by graphviz version 2.40.1 (20161225.0304)
 -->
<!-- Pages: 1 -->
<svg width="1275pt" height="620pt"
 viewBox="0.00 0.00 1274.97 620.00" xmlns="http://www.w3.org/2000/svg" xmlns:xlink="http://www.w3.org/1999/xlink">
<g id="graph0" class="graph" transform="scale(1 1) rotate(0) translate(4 616)">
<polygon fill="#ffffff" stroke="transparent" points="-4,4 -4,-616 1270.9736,-616 1270.9736,4 -4,4"/>
<!-- autoconf -->
<g id="node1" class="node">
<title>autoconf</title>
<ellipse fill="none" stroke="#000000" cx="44.8223" cy="-522" rx="44.6453" ry="18"/>
<text text-anchor="middle" x="44.8223" y="-517.8" font-family="Times,serif" font-size="14.00" fill="#000000">autoconf</text>
</g>
<!-- automake -->
<g id="node2" class="node">
<title>automake</title>
<ellipse fill="none" stroke="#000000" cx="155.8223" cy="-522" rx="48.6559" ry="18"/>
<text text-anchor="middle" x="155.8223" y="-517.8" font-family="Times,serif" font-size="14.00" fill="#000000">automake</text>
</g>
<!-- bash -->
<g id="node3" class="node">
<title>bash</title>
<ellipse fill="none" stroke="#000000" cx="1206.8223" cy="-450" rx="28.9735" ry="18"/>
<text text-anchor="middle" x="1206.8223" y="-445.8" font-family="Times,serif" font-size="14.00" fill="#000000">bash</text>
</g>
<!-- ncurses&#45;dev -->
<g id="node4" class="node">
<title>ncurses&#45;dev</title>
<ellipse fill="none" stroke="#000000" cx="1209.8223" cy="-378" rx="57.303" ry="18"/>
<text text-anchor="middle" x="1209.8223" y="-373.8" font-family="Times,serif" font-size="14.00" fill="#000000">ncurses&#45;dev</text>
</g>
<!-- bash&#45;&gt;ncurses&#45;dev -->
<g id="edge1" class="edge">
<title>bash&#45;&gt;ncurses&#45;dev</title>
<path fill="none" stroke="#000000" d="M1207.5793,-431.8314C1207.9002,-424.131 1208.2817,-414.9743 1208.6383,-406.4166"/>
<polygon fill="#000000" stroke="#000000" points="1212.1356,-406.5503 1209.0551,-396.4133 1205.1417,-406.2589 1212.1356,-406.5503"/>
</g>
<!-- ncurses -->
<g id="node36" class="node">
<title>ncurses</title>
<ellipse fill="none" stroke="#000000" cx="1210.8223" cy="-306" rx="39.9857" ry="18"/>
<text text-anchor="middle" x="1210.8223" y="-301.8" font-family="Times,serif" font-size="14.00" fill="#000000">ncurses</text>
</g>
<!-- ncurses&#45;dev&#45;&gt;ncurses -->
<g id="edge27" class="edge">
<title>ncurses&#45;dev&#45;&gt;ncurses</title>
<path fill="none" stroke="#000000" d="M1210.0746,-359.8314C1210.1816,-352.131 1210.3088,-342.9743 1210.4276,-334.4166"/>
<polygon fill="#000000" stroke="#000000" points="1213.9272,-334.4609 1210.5666,-324.4133 1206.9279,-334.3637 1213.9272,-334.4609"/>
</g>
<!-- bison -->
<g id="node5" class="node">
<title>bison</title>
<ellipse fill="none" stroke="#000000" cx="250.8223" cy="-162" rx="31.9224" ry="18"/>
<text text-anchor="middle" x="250.8223" y="-157.8" font-family="Times,serif" font-size="14.00" fill="#000000">bison</text>
</g>
<!-- m4 -->
<g id="node6" class="node">
<title>m4</title>
<ellipse fill="none" stroke="#000000" cx="250.8223" cy="-90" rx="27" ry="18"/>
<text text-anchor="middle" x="250.8223" y="-85.8" font-family="Times,serif" font-size="14.00" fill="#000000">m4</text>
</g>
<!-- bison&#45;&gt;m4 -->
<g id="edge2" class="edge">
<title>bison&#45;&gt;m4</title>
<path fill="none" stroke="#000000" d="M250.8223,-143.8314C250.8223,-136.131 250.8223,-126.9743 250.8223,-118.4166"/>
<polygon fill="#000000" stroke="#000000" points="254.3224,-118.4132 250.8223,-108.4133 247.3224,-118.4133 254.3224,-118.4132"/>
</g>
<!-- brotli -->
<g id="node7" class="node">
<title>brotli</title>
<ellipse fill="none" stroke="#000000" cx="207.8223" cy="-594" rx="31.9185" ry="18"/>
<text text-anchor="middle" x="207.8223" y="-589.8" font-family="Times,serif" font-size="14.00" fill="#000000">brotli</text>
</g>
<!-- brotli&#45;&gt;autoconf -->
<g id="edge3" class="edge">
<title>brotli&#45;&gt;autoconf</title>
<path fill="none" stroke="#000000" d="M182.3535,-582.75C156.1761,-571.187 115.051,-553.0213 84.5842,-539.5635"/>
<polygon fill="#000000" stroke="#000000" points="85.6609,-536.2129 75.0993,-535.3739 82.8325,-542.6161 85.6609,-536.2129"/>
</g>
<!-- brotli&#45;&gt;automake -->
<g id="edge4" class="edge">
<title>brotli&#45;&gt;automake</title>
<path fill="none" stroke="#000000" d="M195.7617,-577.3008C189.45,-568.5614 181.5821,-557.6674 174.5025,-547.8649"/>
<polygon fill="#000000" stroke="#000000" points="177.2353,-545.6708 168.5429,-539.6132 171.5605,-549.7692 177.2353,-545.6708"/>
</g>
<!-- libtool -->
<g id="node8" class="node">
<title>libtool</title>
<ellipse fill="none" stroke="#000000" cx="258.8223" cy="-522" rx="36.0148" ry="18"/>
<text text-anchor="middle" x="258.8223" y="-517.8" font-family="Times,serif" font-size="14.00" fill="#000000">libtool</text>
</g>
<!-- brotli&#45;&gt;libtool -->
<g id="edge5" class="edge">
<title>brotli&#45;&gt;libtool</title>
<path fill="none" stroke="#000000" d="M219.9086,-576.937C226.1054,-568.1886 233.7795,-557.3545 240.6708,-547.6256"/>
<polygon fill="#000000" stroke="#000000" points="243.5444,-549.624 246.4685,-539.4407 237.8322,-545.5779 243.5444,-549.624"/>
</g>
<!-- wolfi&#45;base -->
<g id="node9" class="node">
<title>wolfi&#45;base</title>
<ellipse fill="none" stroke="#000000" cx="366.8223" cy="-522" rx="51.5823" ry="18"/>
<text text-anchor="middle" x="366.8223" y="-517.8" font-family="Times,serif" font-size="14.00" fill="#000000">wolfi&#45;base</text>
</g>
<!-- brotli&#45;&gt;wolfi&#45;base -->
<g id="edge6" class="edge">
<title>brotli&#45;&gt;wolfi&#45;base</title>
<path fill="none" stroke="#000000" d="M233.0163,-582.5914C257.9849,-571.2849 296.6432,-553.7792 325.9992,-540.4859"/>
<polygon fill="#000000" stroke="#000000" points="327.5085,-543.6446 335.1743,-536.3312 324.6209,-537.268 327.5085,-543.6446"/>
</g>
<!-- help2man -->
<g id="node31" class="node">
<title>help2man</title>
<ellipse fill="none" stroke="#000000" cx="256.8223" cy="-450" rx="49.2396" ry="18"/>
<text text-anchor="middle" x="256.8223" y="-445.8" font-family="Times,serif" font-size="14.00" fill="#000000">help2man</text>
</g>
<!-- libtool&#45;&gt;help2man -->
<g id="edge26" class="edge">
<title>libtool&#45;&gt;help2man</title>
<path fill="none" stroke="#000000" d="M258.3176,-503.8314C258.1037,-496.131 257.8494,-486.9743 257.6116,-478.4166"/>
<polygon fill="#000000" stroke="#000000" points="261.1102,-478.3122 257.3338,-468.4133 254.1129,-478.5066 261.1102,-478.3122"/>
</g>
<!-- busybox -->
<g id="node12" class="node">
<title>busybox</title>
<ellipse fill="none" stroke="#000000" cx="367.8223" cy="-450" rx="43.5271" ry="18"/>
<text text-anchor="middle" x="367.8223" y="-445.8" font-family="Times,serif" font-size="14.00" fill="#000000">busybox</text>
</g>
<!-- wolfi&#45;base&#45;&gt;busybox -->
<g id="edge39" class="edge">
<title>wolfi&#45;base&#45;&gt;busybox</title>
<path fill="none" stroke="#000000" d="M367.0746,-503.8314C367.1816,-496.131 367.3088,-486.9743 367.4276,-478.4166"/>
<polygon fill="#000000" stroke="#000000" points="370.9272,-478.4609 367.5666,-468.4133 363.9279,-478.3637 370.9272,-478.4609"/>
</g>
<!-- brotli&#45;dev -->
<g id="node10" class="node">
<title>brotli&#45;dev</title>
<ellipse fill="none" stroke="#000000" cx="796.8223" cy="-306" rx="49.2357" ry="18"/>
<text text-anchor="middle" x="796.8223" y="-301.8" font-family="Times,serif" font-size="14.00" fill="#000000">brotli&#45;dev</text>
</g>
<!-- build&#45;base -->
<g id="node11" class="node">
<title>build&#45;base</title>
<ellipse fill="none" stroke="#000000" cx="351.8223" cy="-162" rx="51.0242" ry="18"/>
<text text-anchor="middle" x="351.8223" y="-157.8" font-family="Times,serif" font-size="14.00" fill="#000000">build&#45;base</text>
</g>
<!-- ca&#45;certificates&#45;bundle -->
<g id="node13" class="node">
<title>ca&#45;certificates&#45;bundle</title>
<ellipse fill="none" stroke="#000000" cx="367.8223" cy="-378" rx="94.8548" ry="18"/>
<text text-anchor="middle" x="367.8223" y="-373.8" font-family="Times,serif" font-size="14.00" fill="#000000">ca&#45;certificates&#45;bundle</text>
</g>
<!-- busybox&#45;&gt;ca&#45;certificates&#45;bundle -->
<g id="edge7" class="edge">
<title>busybox&#45;&gt;ca&#45;certificates&#45;bundle</title>
<path fill="none" stroke="#000000" d="M367.8223,-431.8314C367.8223,-424.131 367.8223,-414.9743 367.8223,-406.4166"/>
<polygon fill="#000000" stroke="#000000" points="371.3224,-406.4132 367.8223,-396.4133 364.3224,-406.4133 371.3224,-406.4132"/>
</g>
<!-- ca&#45;certificates -->
<g id="node19" class="node">
<title>ca&#45;certificates</title>
<ellipse fill="none" stroke="#000000" cx="367.8223" cy="-306" rx="65.3568" ry="18"/>
<text text-anchor="middle" x="367.8223" y="-301.8" font-family="Times,serif" font-size="14.00" fill="#000000">ca&#45;certificates</text>
</g>
<!-- ca&#45;certificates&#45;bundle&#45;&gt;ca&#45;certificates -->
<g id="edge13" class="edge">
<title>ca&#45;certificates&#45;bundle&#45;&gt;ca&#45;certificates</title>
<path fill="none" stroke="#000000" d="M367.8223,-359.8314C367.8223,-352.131 367.8223,-342.9743 367.8223,-334.4166"/>
<polygon fill="#000000" stroke="#000000" points="371.3224,-334.4132 367.8223,-324.4133 364.3224,-334.4133 371.3224,-334.4132"/>
</g>
<!-- bzip2 -->
<g id="node14" class="node">
<title>bzip2</title>
<ellipse fill="none" stroke="#000000" cx="470.8223" cy="-90" rx="32.4846" ry="18"/>
<text text-anchor="middle" x="470.8223" y="-85.8" font-family="Times,serif" font-size="14.00" fill="#000000">bzip2</text>
</g>
<!-- make -->
<g id="node15" class="node">
<title>make</title>
<ellipse fill="none" stroke="#000000" cx="470.8223" cy="-18" rx="31.9012" ry="18"/>
<text text-anchor="middle" x="470.8223" y="-13.8" font-family="Times,serif" font-size="14.00" fill="#000000">make</text>
</g>
<!-- bzip2&#45;&gt;make -->
<g id="edge8" class="edge">
<title>bzip2&#45;&gt;make</title>
<path fill="none" stroke="#000000" d="M470.8223,-71.8314C470.8223,-64.131 470.8223,-54.9743 470.8223,-46.4166"/>
<polygon fill="#000000" stroke="#000000" points="474.3224,-46.4132 470.8223,-36.4133 467.3224,-46.4133 474.3224,-46.4132"/>
</g>
<!-- bzip2&#45;dev -->
<g id="node16" class="node">
<title>bzip2&#45;dev</title>
<ellipse fill="none" stroke="#000000" cx="470.8223" cy="-162" rx="49.802" ry="18"/>
<text text-anchor="middle" x="470.8223" y="-157.8" font-family="Times,serif" font-size="14.00" fill="#000000">bzip2&#45;dev</text>
</g>
<!-- bzip2&#45;dev&#45;&gt;bzip2 -->
<g id="edge9" class="edge">
<title>bzip2&#45;dev&#45;&gt;bzip2</title>
<path fill="none" stroke="#000000" d="M470.8223,-143.8314C470.8223,-136.131 470.8223,-126.9743 470.8223,-118.4166"/>
<polygon fill="#000000" stroke="#000000" points="474.3224,-118.4132 470.8223,-108.4133 467.3224,-118.4133 474.3224,-118.4132"/>
</g>
<!-- c&#45;ares -->
<g id="node17" class="node">
<title>c&#45;ares</title>
<ellipse fill="none" stroke="#000000" cx="863.8223" cy="-90" rx="34.1639" ry="18"/>
<text text-anchor="middle" x="863.8223" y="-85.8" font-family="Times,serif" font-size="14.00" fill="#000000">c&#45;ares</text>
</g>
<!-- c&#45;ares&#45;dev -->
<g id="node18" class="node">
<title>c&#45;ares&#45;dev</title>
<ellipse fill="none" stroke="#000000" cx="863.8223" cy="-162" rx="51.4817" ry="18"/>
<text text-anchor="middle" x="863.8223" y="-157.8" font-family="Times,serif" font-size="14.00" fill="#000000">c&#45;ares&#45;dev</text>
</g>
<!-- c&#45;ares&#45;dev&#45;&gt;c&#45;ares -->
<g id="edge10" class="edge">
<title>c&#45;ares&#45;dev&#45;&gt;c&#45;ares</title>
<path fill="none" stroke="#000000" d="M863.8223,-143.8314C863.8223,-136.131 863.8223,-126.9743 863.8223,-118.4166"/>
<polygon fill="#000000" stroke="#000000" points="867.3224,-118.4132 863.8223,-108.4133 860.3224,-118.4133 867.3224,-118.4132"/>
</g>
<!-- openssl&#45;dev -->
<g id="node20" class="node">
<title>openssl&#45;dev</title>
<ellipse fill="none" stroke="#000000" cx="212.8223" cy="-234" rx="57.3243" ry="18"/>
<text text-anchor="middle" x="212.8223" y="-229.8" font-family="Times,serif" font-size="14.00" fill="#000000">openssl&#45;dev</text>
</g>
<!-- ca&#45;certificates&#45;&gt;openssl&#45;dev -->
<g id="edge11" class="edge">
<title>ca&#45;certificates&#45;&gt;openssl&#45;dev</title>
<path fill="none" stroke="#000000" d="M334.1896,-290.3771C310.7413,-279.485 279.3046,-264.8821 254.3012,-253.2676"/>
<polygon fill="#000000" stroke="#000000" points="255.6072,-250.0151 245.0634,-248.9765 252.6582,-256.3637 255.6072,-250.0151"/>
</g>
<!-- perl -->
<g id="node21" class="node">
<title>perl</title>
<ellipse fill="none" stroke="#000000" cx="418.8223" cy="-234" rx="27" ry="18"/>
<text text-anchor="middle" x="418.8223" y="-229.8" font-family="Times,serif" font-size="14.00" fill="#000000">perl</text>
</g>
<!-- ca&#45;certificates&#45;&gt;perl -->
<g id="edge12" class="edge">
<title>ca&#45;certificates&#45;&gt;perl</title>
<path fill="none" stroke="#000000" d="M380.429,-288.2022C386.6622,-279.4025 394.29,-268.6338 401.0996,-259.0202"/>
<polygon fill="#000000" stroke="#000000" points="404.1357,-260.7892 407.0598,-250.6058 398.4235,-256.743 404.1357,-260.7892"/>
</g>
<!-- openssl -->
<g id="node38" class="node">
<title>openssl</title>
<ellipse fill="none" stroke="#000000" cx="160.8223" cy="-162" rx="40.007" ry="18"/>
<text text-anchor="middle" x="160.8223" y="-157.8" font-family="Times,serif" font-size="14.00" fill="#000000">openssl</text>
</g>
<!-- openssl&#45;dev&#45;&gt;openssl -->
<g id="edge31" class="edge">
<title>openssl&#45;dev&#45;&gt;openssl</title>
<path fill="none" stroke="#000000" d="M199.9684,-216.2022C193.7512,-207.5938 186.1731,-197.1011 179.3464,-187.6488"/>
<polygon fill="#000000" stroke="#000000" points="182.0413,-185.4022 173.3489,-179.3446 176.3665,-189.5006 182.0413,-185.4022"/>
</g>
<!-- perl&#45;&gt;bison -->
<g id="edge34" class="edge">
<title>perl&#45;&gt;bison</title>
<path fill="none" stroke="#000000" d="M395.845,-224.325C370.3802,-213.5805 328.1118,-195.6804 291.8223,-180 289.793,-179.1231 287.7085,-178.219 285.6063,-177.3044"/>
<polygon fill="#000000" stroke="#000000" points="286.9563,-174.0748 276.3913,-173.2803 284.1549,-180.4898 286.9563,-174.0748"/>
</g>
<!-- perl&#45;&gt;build&#45;base -->
<g id="edge35" class="edge">
<title>perl&#45;&gt;build&#45;base</title>
<path fill="none" stroke="#000000" d="M404.2843,-218.3771C395.6747,-209.1249 384.5735,-197.1954 374.8016,-186.6942"/>
<polygon fill="#000000" stroke="#000000" points="377.3503,-184.2953 367.9757,-179.3589 372.2258,-189.0639 377.3503,-184.2953"/>
</g>
<!-- perl&#45;&gt;bzip2&#45;dev -->
<g id="edge36" class="edge">
<title>perl&#45;&gt;bzip2&#45;dev</title>
<path fill="none" stroke="#000000" d="M430.6219,-217.6621C436.9722,-208.8694 444.9528,-197.8194 452.1261,-187.887"/>
<polygon fill="#000000" stroke="#000000" points="455.1433,-189.6872 458.1609,-179.5312 449.4686,-185.5888 455.1433,-189.6872"/>
</g>
<!-- wolfi&#45;baselayout -->
<g id="node40" class="node">
<title>wolfi&#45;baselayout</title>
<ellipse fill="none" stroke="#000000" cx="614.8223" cy="-162" rx="75.8605" ry="18"/>
<text text-anchor="middle" x="614.8223" y="-157.8" font-family="Times,serif" font-size="14.00" fill="#000000">wolfi&#45;baselayout</text>
</g>
<!-- perl&#45;&gt;wolfi&#45;baselayout -->
<g id="edge37" class="edge">
<title>perl&#45;&gt;wolfi&#45;baselayout</title>
<path fill="none" stroke="#000000" d="M442.8557,-225.1714C472.8227,-214.1631 524.8503,-195.0509 563.8517,-180.7239"/>
<polygon fill="#000000" stroke="#000000" points="565.2855,-183.9259 573.4653,-177.1924 562.8717,-177.3553 565.2855,-183.9259"/>
</g>
<!-- zlib&#45;dev -->
<g id="node41" class="node">
<title>zlib&#45;dev</title>
<ellipse fill="none" stroke="#000000" cx="751.8223" cy="-162" rx="42.8557" ry="18"/>
<text text-anchor="middle" x="751.8223" y="-157.8" font-family="Times,serif" font-size="14.00" fill="#000000">zlib&#45;dev</text>
</g>
<!-- perl&#45;&gt;zlib&#45;dev -->
<g id="edge38" class="edge">
<title>perl&#45;&gt;zlib&#45;dev</title>
<path fill="none" stroke="#000000" d="M445.4529,-230.1869C495.6915,-222.7067 607.6856,-204.6633 699.8223,-180 703.1532,-179.1084 706.5785,-178.1104 710.0054,-177.0537"/>
<polygon fill="#000000" stroke="#000000" points="711.1488,-180.3625 719.5903,-173.96 708.9986,-173.7009 711.1488,-180.3625"/>
</g>
<!-- curl -->
<g id="node22" class="node">
<title>curl</title>
<ellipse fill="none" stroke="#000000" cx="879.8223" cy="-378" rx="27" ry="18"/>
<text text-anchor="middle" x="879.8223" y="-373.8" font-family="Times,serif" font-size="14.00" fill="#000000">curl</text>
</g>
<!-- curl&#45;&gt;brotli&#45;dev -->
<g id="edge14" class="edge">
<title>curl&#45;&gt;brotli&#45;dev</title>
<path fill="none" stroke="#000000" d="M863.026,-363.4297C851.807,-353.6976 836.8009,-340.6802 823.9121,-329.4995"/>
<polygon fill="#000000" stroke="#000000" points="826.0607,-326.7301 816.2133,-322.8212 821.4738,-332.0178 826.0607,-326.7301"/>
</g>
<!-- nghttp2&#45;dev -->
<g id="node23" class="node">
<title>nghttp2&#45;dev</title>
<ellipse fill="none" stroke="#000000" cx="921.8223" cy="-306" rx="57.91" ry="18"/>
<text text-anchor="middle" x="921.8223" y="-301.8" font-family="Times,serif" font-size="14.00" fill="#000000">nghttp2&#45;dev</text>
</g>
<!-- curl&#45;&gt;nghttp2&#45;dev -->
<g id="edge15" class="edge">
<title>curl&#45;&gt;nghttp2&#45;dev</title>
<path fill="none" stroke="#000000" d="M889.7757,-360.937C894.7023,-352.4914 900.7628,-342.1019 906.2825,-332.6396"/>
<polygon fill="#000000" stroke="#000000" points="909.3387,-334.3466 911.3542,-323.9453 903.2922,-330.8195 909.3387,-334.3466"/>
</g>
<!-- nghttp2 -->
<g id="node37" class="node">
<title>nghttp2</title>
<ellipse fill="none" stroke="#000000" cx="921.8223" cy="-234" rx="40.5925" ry="18"/>
<text text-anchor="middle" x="921.8223" y="-229.8" font-family="Times,serif" font-size="14.00" fill="#000000">nghttp2</text>
</g>
<!-- nghttp2&#45;dev&#45;&gt;nghttp2 -->
<g id="edge30" class="edge">
<title>nghttp2&#45;dev&#45;&gt;nghttp2</title>
<path fill="none" stroke="#000000" d="M921.8223,-287.8314C921.8223,-280.131 921.8223,-270.9743 921.8223,-262.4166"/>
<polygon fill="#000000" stroke="#000000" points="925.3224,-262.4132 921.8223,-252.4133 918.3224,-262.4133 925.3224,-262.4132"/>
</g>
<!-- curl&#45;dev -->
<g id="node24" class="node">
<title>curl&#45;dev</title>
<ellipse fill="none" stroke="#000000" cx="879.8223" cy="-450" rx="43.4183" ry="18"/>
<text text-anchor="middle" x="879.8223" y="-445.8" font-family="Times,serif" font-size="14.00" fill="#000000">curl&#45;dev</text>
</g>
<!-- curl&#45;dev&#45;&gt;curl -->
<g id="edge16" class="edge">
<title>curl&#45;dev&#45;&gt;curl</title>
<path fill="none" stroke="#000000" d="M879.8223,-431.8314C879.8223,-424.131 879.8223,-414.9743 879.8223,-406.4166"/>
<polygon fill="#000000" stroke="#000000" points="883.3224,-406.4132 879.8223,-396.4133 876.3224,-406.4133 883.3224,-406.4132"/>
</g>
<!-- expat -->
<g id="node25" class="node">
<title>expat</title>
<ellipse fill="none" stroke="#000000" cx="989.8223" cy="-378" rx="31.9012" ry="18"/>
<text text-anchor="middle" x="989.8223" y="-373.8" font-family="Times,serif" font-size="14.00" fill="#000000">expat</text>
</g>
<!-- expat&#45;dev -->
<g id="node26" class="node">
<title>expat&#45;dev</title>
<ellipse fill="none" stroke="#000000" cx="989.8223" cy="-450" rx="49.2183" ry="18"/>
<text text-anchor="middle" x="989.8223" y="-445.8" font-family="Times,serif" font-size="14.00" fill="#000000">expat&#45;dev</text>
</g>
<!-- expat&#45;dev&#45;&gt;expat -->
<g id="edge17" class="edge">
<title>expat&#45;dev&#45;&gt;expat</title>
<path fill="none" stroke="#000000" d="M989.8223,-431.8314C989.8223,-424.131 989.8223,-414.9743 989.8223,-406.4166"/>
<polygon fill="#000000" stroke="#000000" points="993.3224,-406.4132 989.8223,-396.4133 986.3224,-406.4133 993.3224,-406.4132"/>
</g>
<!-- git -->
<g id="node27" class="node">
<title>git</title>
<ellipse fill="none" stroke="#000000" cx="1048.8223" cy="-522" rx="27" ry="18"/>
<text text-anchor="middle" x="1048.8223" y="-517.8" font-family="Times,serif" font-size="14.00" fill="#000000">git</text>
</g>
<!-- git&#45;&gt;curl&#45;dev -->
<g id="edge18" class="edge">
<title>git&#45;&gt;curl&#45;dev</title>
<path fill="none" stroke="#000000" d="M1026.0302,-512.2898C998.8054,-500.691 952.7897,-481.0867 919.6458,-466.9662"/>
<polygon fill="#000000" stroke="#000000" points="920.8091,-463.6575 910.2374,-462.9579 918.0654,-470.0974 920.8091,-463.6575"/>
</g>
<!-- git&#45;&gt;expat&#45;dev -->
<g id="edge19" class="edge">
<title>git&#45;&gt;expat&#45;dev</title>
<path fill="none" stroke="#000000" d="M1035.7283,-506.0209C1028.3348,-496.9983 1018.9255,-485.5157 1010.5528,-475.2982"/>
<polygon fill="#000000" stroke="#000000" points="1013.1641,-472.9628 1004.1187,-467.4464 1007.7497,-477.3996 1013.1641,-472.9628"/>
</g>
<!-- pcre2&#45;dev -->
<g id="node28" class="node">
<title>pcre2&#45;dev</title>
<ellipse fill="none" stroke="#000000" cx="1106.8223" cy="-450" rx="49.7807" ry="18"/>
<text text-anchor="middle" x="1106.8223" y="-445.8" font-family="Times,serif" font-size="14.00" fill="#000000">pcre2&#45;dev</text>
</g>
<!-- git&#45;&gt;pcre2&#45;dev -->
<g id="edge20" class="edge">
<title>git&#45;&gt;pcre2&#45;dev</title>
<path fill="none" stroke="#000000" d="M1061.6944,-506.0209C1068.9625,-496.9983 1078.2124,-485.5157 1086.4432,-475.2982"/>
<polygon fill="#000000" stroke="#000000" points="1089.2206,-477.4296 1092.7682,-467.4464 1083.7693,-473.0383 1089.2206,-477.4296"/>
</g>
<!-- pcre2 -->
<g id="node39" class="node">
<title>pcre2</title>
<ellipse fill="none" stroke="#000000" cx="1100.8223" cy="-378" rx="32.4634" ry="18"/>
<text text-anchor="middle" x="1100.8223" y="-373.8" font-family="Times,serif" font-size="14.00" fill="#000000">pcre2</text>
</g>
<!-- pcre2&#45;dev&#45;&gt;pcre2 -->
<g id="edge33" class="edge">
<title>pcre2&#45;dev&#45;&gt;pcre2</title>
<path fill="none" stroke="#000000" d="M1105.3082,-431.8314C1104.6665,-424.131 1103.9035,-414.9743 1103.1903,-406.4166"/>
<polygon fill="#000000" stroke="#000000" points="1106.6752,-406.088 1102.3567,-396.4133 1099.6994,-406.6694 1106.6752,-406.088"/>
</g>
<!-- git&#45;lfs -->
<g id="node29" class="node">
<title>git&#45;lfs</title>
<ellipse fill="none" stroke="#000000" cx="1099.8223" cy="-594" rx="34.2026" ry="18"/>
<text text-anchor="middle" x="1099.8223" y="-589.8" font-family="Times,serif" font-size="14.00" fill="#000000">git&#45;lfs</text>
</g>
<!-- git&#45;lfs&#45;&gt;git -->
<g id="edge21" class="edge">
<title>git&#45;lfs&#45;&gt;git</title>
<path fill="none" stroke="#000000" d="M1087.736,-576.937C1081.357,-567.9313 1073.4123,-556.7154 1066.3678,-546.7701"/>
<polygon fill="#000000" stroke="#000000" points="1069.1071,-544.5821 1060.4708,-538.4449 1063.3949,-548.6283 1069.1071,-544.5821"/>
</g>
<!-- go -->
<g id="node30" class="node">
<title>go</title>
<ellipse fill="none" stroke="#000000" cx="1192.8223" cy="-522" rx="27" ry="18"/>
<text text-anchor="middle" x="1192.8223" y="-517.8" font-family="Times,serif" font-size="14.00" fill="#000000">go</text>
</g>
<!-- git&#45;lfs&#45;&gt;go -->
<g id="edge22" class="edge">
<title>git&#45;lfs&#45;&gt;go</title>
<path fill="none" stroke="#000000" d="M1119.092,-579.0816C1133.008,-568.3078 1151.948,-553.6446 1167.1469,-541.8777"/>
<polygon fill="#000000" stroke="#000000" points="1169.3856,-544.5709 1175.1502,-535.6816 1165.1003,-539.0358 1169.3856,-544.5709"/>
</g>
<!-- go&#45;&gt;bash -->
<g id="edge23" class="edge">
<title>go&#45;&gt;bash</title>
<path fill="none" stroke="#000000" d="M1196.3551,-503.8314C1197.8921,-495.9266 1199.7276,-486.4872 1201.4291,-477.7365"/>
<polygon fill="#000000" stroke="#000000" points="1204.866,-478.3976 1203.3391,-467.9134 1197.9947,-477.0615 1204.866,-478.3976"/>
</g>
<!-- libedit -->
<g id="node32" class="node">
<title>libedit</title>
<ellipse fill="none" stroke="#000000" cx="1099.8223" cy="-234" rx="35.931" ry="18"/>
<text text-anchor="middle" x="1099.8223" y="-229.8" font-family="Times,serif" font-size="14.00" fill="#000000">libedit</text>
</g>
<!-- libedit&#45;dev -->
<g id="node33" class="node">
<title>libedit&#45;dev</title>
<ellipse fill="none" stroke="#000000" cx="1099.8223" cy="-306" rx="52.7469" ry="18"/>
<text text-anchor="middle" x="1099.8223" y="-301.8" font-family="Times,serif" font-size="14.00" fill="#000000">libedit&#45;dev</text>
</g>
<!-- libedit&#45;dev&#45;&gt;libedit -->
<g id="edge24" class="edge">
<title>libedit&#45;dev&#45;&gt;libedit</title>
<path fill="none" stroke="#000000" d="M1099.8223,-287.8314C1099.8223,-280.131 1099.8223,-270.9743 1099.8223,-262.4166"/>
<polygon fill="#000000" stroke="#000000" points="1103.3224,-262.4132 1099.8223,-252.4133 1096.3224,-262.4133 1103.3224,-262.4132"/>
</g>
<!-- libev -->
<g id="node34" class="node">
<title>libev</title>
<ellipse fill="none" stroke="#000000" cx="980.8223" cy="-90" rx="30.1958" ry="18"/>
<text text-anchor="middle" x="980.8223" y="-85.8" font-family="Times,serif" font-size="14.00" fill="#000000">libev</text>
</g>
<!-- libev&#45;dev -->
<g id="node35" class="node">
<title>libev&#45;dev</title>
<ellipse fill="none" stroke="#000000" cx="980.8223" cy="-162" rx="47.5119" ry="18"/>
<text text-anchor="middle" x="980.8223" y="-157.8" font-family="Times,serif" font-size="14.00" fill="#000000">libev&#45;dev</text>
</g>
<!-- libev&#45;dev&#45;&gt;libev -->
<g id="edge25" class="edge">
<title>libev&#45;dev&#45;&gt;libev</title>
<path fill="none" stroke="#000000" d="M980.8223,-143.8314C980.8223,-136.131 980.8223,-126.9743 980.8223,-118.4166"/>
<polygon fill="#000000" stroke="#000000" points="984.3224,-118.4132 980.8223,-108.4133 977.3224,-118.4133 984.3224,-118.4132"/>
</g>
<!-- nghttp2&#45;&gt;c&#45;ares&#45;dev -->
<g id="edge28" class="edge">
<title>nghttp2&#45;&gt;c&#45;ares&#45;dev</title>
<path fill="none" stroke="#000000" d="M908.0771,-216.937C900.9586,-208.1003 892.1258,-197.1354 884.2279,-187.3311"/>
<polygon fill="#000000" stroke="#000000" points="886.8707,-185.0326 877.8717,-179.4407 881.4194,-189.4239 886.8707,-185.0326"/>
</g>
<!-- nghttp2&#45;&gt;libev&#45;dev -->
<g id="edge29" class="edge">
<title>nghttp2&#45;&gt;libev&#45;dev</title>
<path fill="none" stroke="#000000" d="M935.8045,-216.937C943.0457,-208.1003 952.0308,-197.1354 960.0649,-187.3311"/>
<polygon fill="#000000" stroke="#000000" points="962.8996,-189.3939 966.5306,-179.4407 957.4852,-184.9571 962.8996,-189.3939"/>
</g>
<!-- pcre2&#45;&gt;libedit&#45;dev -->
<g id="edge32" class="edge">
<title>pcre2&#45;&gt;libedit&#45;dev</title>
<path fill="none" stroke="#000000" d="M1100.57,-359.8314C1100.463,-352.131 1100.3358,-342.9743 1100.217,-334.4166"/>
<polygon fill="#000000" stroke="#000000" points="1103.7167,-334.3637 1100.078,-324.4133 1096.7173,-334.4609 1103.7167,-334.3637"/>
</g>
<!-- zlib -->
<g id="node42" class="node">
<title>zlib</title>
<ellipse fill="none" stroke="#000000" cx="751.8223" cy="-90" rx="27" ry="18"/>
<text text-anchor="middle" x="751.8223" y="-85.8" font-family="Times,serif" font-size="14.00" fill="#000000">zlib</text>
</g>
<!-- zlib&#45;dev&#45;&gt;zlib -->
<g id="edge40" class="edge">
<title>zlib&#45;dev&#45;&gt;zlib</title>
<path fill="none" stroke="#000000" d="M751.8223,-143.8314C751.8223,-136.131 751.8223,-126.9743 751.8223,-118.4166"/>
<polygon fill="#000000" stroke="#000000" points="755.3224,-118.4132 751.8223,-108.4133 748.3224,-118.4133 755.3224,-118.4132"/>
</g>
</g>
</svg>
