<?xml version="1.0" encoding="UTF-8" standalone="no"?>
<!DOCTYPE svg PUBLIC "-//W3C//DTD SVG 1.1//EN"
 "http://www.w3.org/Graphics/SVG/1.1/DTD/svg11.dtd">
<!-- Generated by graphviz version 2.40.1 (20161225.0304)
 -->
<!-- Pages: 1 -->
<svg width="841pt" height="980pt"
 viewBox="0.00 0.00 841.00 980.00" xmlns="http://www.w3.org/2000/svg" xmlns:xlink="http://www.w3.org/1999/xlink">
<g id="graph0" class="graph" transform="scale(1 1) rotate(0) translate(4 976)">
<polygon fill="#ffffff" stroke="transparent" points="-4,4 -4,-976 837,-976 837,4 -4,4"/>
<!-- attr -->
<g id="node1" class="node">
<title>attr</title>
<ellipse fill="none" stroke="#000000" cx="615" cy="-738" rx="27" ry="18"/>
<text text-anchor="middle" x="615" y="-733.8" font-family="Times,serif" font-size="14.00" fill="#000000">attr</text>
</g>
<!-- build&#45;base -->
<g id="node2" class="node">
<title>build&#45;base</title>
<ellipse fill="none" stroke="#000000" cx="290" cy="-666" rx="51.0242" ry="18"/>
<text text-anchor="middle" x="290" y="-661.8" font-family="Times,serif" font-size="14.00" fill="#000000">build&#45;base</text>
</g>
<!-- attr&#45;&gt;build&#45;base -->
<g id="edge1" class="edge">
<title>attr&#45;&gt;build&#45;base</title>
<path fill="none" stroke="#000000" d="M589.2261,-732.2901C536.2799,-720.5605 414.3115,-693.5398 343.5221,-677.8572"/>
<polygon fill="#000000" stroke="#000000" points="343.9838,-674.3747 333.4635,-675.6288 342.4697,-681.209 343.9838,-674.3747"/>
</g>
<!-- busybox -->
<g id="node3" class="node">
<title>busybox</title>
<ellipse fill="none" stroke="#000000" cx="411" cy="-594" rx="43.5271" ry="18"/>
<text text-anchor="middle" x="411" y="-589.8" font-family="Times,serif" font-size="14.00" fill="#000000">busybox</text>
</g>
<!-- attr&#45;&gt;busybox -->
<g id="edge2" class="edge">
<title>attr&#45;&gt;busybox</title>
<path fill="none" stroke="#000000" d="M623.2023,-720.7878C631.262,-701.0738 640.2007,-668.8204 624,-648 604.4814,-622.9156 520.1317,-607.608 463.6165,-599.9772"/>
<polygon fill="#000000" stroke="#000000" points="463.7794,-596.4687 453.4097,-598.641 462.8707,-603.4095 463.7794,-596.4687"/>
</g>
<!-- ca&#45;certificates&#45;bundle -->
<g id="node4" class="node">
<title>ca&#45;certificates&#45;bundle</title>
<ellipse fill="none" stroke="#000000" cx="411" cy="-522" rx="94.8548" ry="18"/>
<text text-anchor="middle" x="411" y="-517.8" font-family="Times,serif" font-size="14.00" fill="#000000">ca&#45;certificates&#45;bundle</text>
</g>
<!-- attr&#45;&gt;ca&#45;certificates&#45;bundle -->
<g id="edge3" class="edge">
<title>attr&#45;&gt;ca&#45;certificates&#45;bundle</title>
<path fill="none" stroke="#000000" d="M627.3371,-721.7611C639.99,-702.9615 655.9897,-671.5662 642,-648 607.2977,-589.5425 534.8815,-556.4708 480.3248,-539.0249"/>
<polygon fill="#000000" stroke="#000000" points="481.2906,-535.6601 470.7029,-536.0493 479.2225,-542.3476 481.2906,-535.6601"/>
</g>
<!-- wolfi&#45;base -->
<g id="node5" class="node">
<title>wolfi&#45;base</title>
<ellipse fill="none" stroke="#000000" cx="563" cy="-666" rx="51.5823" ry="18"/>
<text text-anchor="middle" x="563" y="-661.8" font-family="Times,serif" font-size="14.00" fill="#000000">wolfi&#45;base</text>
</g>
<!-- attr&#45;&gt;wolfi&#45;base -->
<g id="edge4" class="edge">
<title>attr&#45;&gt;wolfi&#45;base</title>
<path fill="none" stroke="#000000" d="M603.2004,-721.6621C596.8501,-712.8694 588.8695,-701.8194 581.6962,-691.887"/>
<polygon fill="#000000" stroke="#000000" points="584.3537,-689.5888 575.6614,-683.5312 578.679,-693.6872 584.3537,-689.5888"/>
</g>
<!-- build&#45;base&#45;&gt;busybox -->
<g id="edge21" class="edge">
<title>build&#45;base&#45;&gt;busybox</title>
<path fill="none" stroke="#000000" d="M316.2552,-650.3771C334.1362,-639.7372 357.9678,-625.5563 377.256,-614.0791"/>
<polygon fill="#000000" stroke="#000000" points="379.2326,-616.9757 386.0365,-608.8543 375.653,-610.9602 379.2326,-616.9757"/>
</g>
<!-- wolfi&#45;baselayout -->
<g id="node12" class="node">
<title>wolfi&#45;baselayout</title>
<ellipse fill="none" stroke="#000000" cx="159" cy="-18" rx="75.8605" ry="18"/>
<text text-anchor="middle" x="159" y="-13.8" font-family="Times,serif" font-size="14.00" fill="#000000">wolfi&#45;baselayout</text>
</g>
<!-- build&#45;base&#45;&gt;wolfi&#45;baselayout -->
<g id="edge22" class="edge">
<title>build&#45;base&#45;&gt;wolfi&#45;baselayout</title>
<path fill="none" stroke="#000000" d="M239.154,-663.2563C155.9832,-655.7274 0,-627.5389 0,-522 0,-522 0,-522 0,-162 0,-101.7722 63.4509,-60.1729 110.1871,-37.701"/>
<polygon fill="#000000" stroke="#000000" points="111.7008,-40.857 119.2877,-33.4618 108.745,-34.5116 111.7008,-40.857"/>
</g>
<!-- busybox&#45;&gt;ca&#45;certificates&#45;bundle -->
<g id="edge23" class="edge">
<title>busybox&#45;&gt;ca&#45;certificates&#45;bundle</title>
<path fill="none" stroke="#000000" d="M411,-575.8314C411,-568.131 411,-558.9743 411,-550.4166"/>
<polygon fill="#000000" stroke="#000000" points="414.5001,-550.4132 411,-540.4133 407.5001,-550.4133 414.5001,-550.4132"/>
</g>
<!-- ca&#45;certificates -->
<g id="node13" class="node">
<title>ca&#45;certificates</title>
<ellipse fill="none" stroke="#000000" cx="315" cy="-450" rx="65.3568" ry="18"/>
<text text-anchor="middle" x="315" y="-445.8" font-family="Times,serif" font-size="14.00" fill="#000000">ca&#45;certificates</text>
</g>
<!-- ca&#45;certificates&#45;bundle&#45;&gt;ca&#45;certificates -->
<g id="edge26" class="edge">
<title>ca&#45;certificates&#45;bundle&#45;&gt;ca&#45;certificates</title>
<path fill="none" stroke="#000000" d="M387.2697,-504.2022C374.7628,-494.8221 359.2729,-483.2047 345.8453,-473.134"/>
<polygon fill="#000000" stroke="#000000" points="347.8963,-470.2973 337.7963,-467.0972 343.6963,-475.8973 347.8963,-470.2973"/>
</g>
<!-- wolfi&#45;base&#45;&gt;busybox -->
<g id="edge43" class="edge">
<title>wolfi&#45;base&#45;&gt;busybox</title>
<path fill="none" stroke="#000000" d="M532.2405,-651.4297C508.2128,-640.0481 474.6995,-624.1734 448.9958,-611.998"/>
<polygon fill="#000000" stroke="#000000" points="450.4471,-608.8127 439.9114,-607.6949 447.4505,-615.1389 450.4471,-608.8127"/>
</g>
<!-- autoconf -->
<g id="node6" class="node">
<title>autoconf</title>
<ellipse fill="none" stroke="#000000" cx="604" cy="-810" rx="44.6453" ry="18"/>
<text text-anchor="middle" x="604" y="-805.8" font-family="Times,serif" font-size="14.00" fill="#000000">autoconf</text>
</g>
<!-- autoconf&#45;&gt;build&#45;base -->
<g id="edge5" class="edge">
<title>autoconf&#45;&gt;build&#45;base</title>
<path fill="none" stroke="#000000" d="M561.5626,-803.9235C501.6219,-794.768 395.8002,-776.3305 363,-756 337.8259,-740.3964 317.4645,-712.9765 304.7054,-692.4904"/>
<polygon fill="#000000" stroke="#000000" points="307.7009,-690.68 299.5496,-683.912 301.7011,-694.286 307.7009,-690.68"/>
</g>
<!-- autoconf&#45;&gt;busybox -->
<g id="edge6" class="edge">
<title>autoconf&#45;&gt;busybox</title>
<path fill="none" stroke="#000000" d="M623.8045,-793.7137C634.0397,-783.9773 645.5112,-770.6667 651,-756 659.5778,-733.0792 645.3046,-651.6722 642,-648 618.5938,-621.9899 524.4891,-606.7178 463.85,-599.388"/>
<polygon fill="#000000" stroke="#000000" points="464.0218,-595.8843 453.6821,-598.1951 463.2061,-602.8366 464.0218,-595.8843"/>
</g>
<!-- autoconf&#45;&gt;ca&#45;certificates&#45;bundle -->
<g id="edge7" class="edge">
<title>autoconf&#45;&gt;ca&#45;certificates&#45;bundle</title>
<path fill="none" stroke="#000000" d="M629.9626,-795.0311C643.4136,-785.7068 658.5494,-772.3696 666,-756 674.0992,-738.2053 664.3932,-661.3755 659,-648 643.7371,-610.1474 635.9515,-598.6511 602,-576 571.2137,-555.4606 532.6424,-542.6507 498.2365,-534.6998"/>
<polygon fill="#000000" stroke="#000000" points="498.6998,-531.218 488.1809,-532.4846 497.1937,-538.0541 498.6998,-531.218"/>
</g>
<!-- m4 -->
<g id="node7" class="node">
<title>m4</title>
<ellipse fill="none" stroke="#000000" cx="399" cy="-738" rx="27" ry="18"/>
<text text-anchor="middle" x="399" y="-733.8" font-family="Times,serif" font-size="14.00" fill="#000000">m4</text>
</g>
<!-- autoconf&#45;&gt;m4 -->
<g id="edge8" class="edge">
<title>autoconf&#45;&gt;m4</title>
<path fill="none" stroke="#000000" d="M570.1484,-798.1107C532.0448,-784.7279 470.5171,-763.1182 432.5412,-749.7803"/>
<polygon fill="#000000" stroke="#000000" points="433.553,-746.4262 422.9582,-746.4146 431.2334,-753.0307 433.553,-746.4262"/>
</g>
<!-- perl -->
<g id="node8" class="node">
<title>perl</title>
<ellipse fill="none" stroke="#000000" cx="230" cy="-234" rx="27" ry="18"/>
<text text-anchor="middle" x="230" y="-229.8" font-family="Times,serif" font-size="14.00" fill="#000000">perl</text>
</g>
<!-- autoconf&#45;&gt;perl -->
<g id="edge9" class="edge">
<title>autoconf&#45;&gt;perl</title>
<path fill="none" stroke="#000000" d="M636.3244,-797.4128C699.4484,-770.4711 833,-700.8451 833,-594 833,-594 833,-594 833,-378 833,-261.1419 399.1505,-238.9218 267.4552,-234.8688"/>
<polygon fill="#000000" stroke="#000000" points="267.1783,-231.3594 257.0811,-234.5683 266.9756,-238.3564 267.1783,-231.3594"/>
</g>
<!-- m4&#45;&gt;build&#45;base -->
<g id="edge36" class="edge">
<title>m4&#45;&gt;build&#45;base</title>
<path fill="none" stroke="#000000" d="M379.7639,-725.2936C364.0412,-714.9079 341.4564,-699.9895 322.8747,-687.7154"/>
<polygon fill="#000000" stroke="#000000" points="324.6638,-684.7025 314.3907,-682.1113 320.8056,-690.5433 324.6638,-684.7025"/>
</g>
<!-- m4&#45;&gt;busybox -->
<g id="edge37" class="edge">
<title>m4&#45;&gt;busybox</title>
<path fill="none" stroke="#000000" d="M400.5198,-719.7623C402.5666,-695.201 406.2294,-651.2474 408.6372,-622.3541"/>
<polygon fill="#000000" stroke="#000000" points="412.1499,-622.3458 409.4925,-612.0896 405.1741,-621.7644 412.1499,-622.3458"/>
</g>
<!-- m4&#45;&gt;ca&#45;certificates&#45;bundle -->
<g id="edge38" class="edge">
<title>m4&#45;&gt;ca&#45;certificates&#45;bundle</title>
<path fill="none" stroke="#000000" d="M388.0709,-721.4234C369.8305,-691.5459 337.1438,-627.0244 358,-576 362.5745,-564.8085 370.7105,-554.6843 379.2557,-546.3065"/>
<polygon fill="#000000" stroke="#000000" points="381.7767,-548.7438 386.7913,-539.4108 377.0511,-543.5797 381.7767,-548.7438"/>
</g>
<!-- perl&#45;&gt;wolfi&#45;baselayout -->
<g id="edge41" class="edge">
<title>perl&#45;&gt;wolfi&#45;baselayout</title>
<path fill="none" stroke="#000000" d="M228.3453,-215.8235C225.0598,-185.1187 216.1187,-121.4896 195,-72 190.9301,-62.4626 185.1339,-52.8037 179.3785,-44.3432"/>
<polygon fill="#000000" stroke="#000000" points="182.1109,-42.1458 173.4697,-36.0156 176.402,-46.1966 182.1109,-42.1458"/>
</g>
<!-- zlib&#45;dev -->
<g id="node17" class="node">
<title>zlib&#45;dev</title>
<ellipse fill="none" stroke="#000000" cx="159" cy="-162" rx="42.8557" ry="18"/>
<text text-anchor="middle" x="159" y="-157.8" font-family="Times,serif" font-size="14.00" fill="#000000">zlib&#45;dev</text>
</g>
<!-- perl&#45;&gt;zlib&#45;dev -->
<g id="edge42" class="edge">
<title>perl&#45;&gt;zlib&#45;dev</title>
<path fill="none" stroke="#000000" d="M214.9427,-218.7307C205.5498,-209.2055 193.2606,-196.7431 182.5934,-185.9257"/>
<polygon fill="#000000" stroke="#000000" points="185.0368,-183.4188 175.5232,-178.7559 180.0525,-188.3338 185.0368,-183.4188"/>
</g>
<!-- automake -->
<g id="node9" class="node">
<title>automake</title>
<ellipse fill="none" stroke="#000000" cx="454" cy="-882" rx="48.6559" ry="18"/>
<text text-anchor="middle" x="454" y="-877.8" font-family="Times,serif" font-size="14.00" fill="#000000">automake</text>
</g>
<!-- automake&#45;&gt;build&#45;base -->
<g id="edge11" class="edge">
<title>automake&#45;&gt;build&#45;base</title>
<path fill="none" stroke="#000000" d="M431.2759,-865.7367C402.1899,-843.842 351.985,-802.2565 322,-756 309.6516,-736.9506 301.3592,-712.5387 296.316,-693.9466"/>
<polygon fill="#000000" stroke="#000000" points="299.647,-692.8446 293.7797,-684.0227 292.8649,-694.578 299.647,-692.8446"/>
</g>
<!-- automake&#45;&gt;busybox -->
<g id="edge12" class="edge">
<title>automake&#45;&gt;busybox</title>
<path fill="none" stroke="#000000" d="M452.3097,-863.964C449.4052,-833.9889 443.0005,-772.0599 435,-720 429.8206,-686.2973 422.2506,-647.8329 417.0029,-622.3612"/>
<polygon fill="#000000" stroke="#000000" points="420.3719,-621.3704 414.9099,-612.292 413.5184,-622.7951 420.3719,-621.3704"/>
</g>
<!-- automake&#45;&gt;ca&#45;certificates&#45;bundle -->
<g id="edge13" class="edge">
<title>automake&#45;&gt;ca&#45;certificates&#45;bundle</title>
<path fill="none" stroke="#000000" d="M459.5344,-863.8534C473.3983,-815.0587 505.6302,-677.8478 464,-576 459.4255,-564.8085 451.2895,-554.6843 442.7443,-546.3065"/>
<polygon fill="#000000" stroke="#000000" points="444.9489,-543.5797 435.2087,-539.4108 440.2233,-548.7438 444.9489,-543.5797"/>
</g>
<!-- automake&#45;&gt;autoconf -->
<g id="edge10" class="edge">
<title>automake&#45;&gt;autoconf</title>
<path fill="none" stroke="#000000" d="M483.9942,-867.6028C507.4955,-856.3221 540.3526,-840.5508 565.7455,-828.3621"/>
<polygon fill="#000000" stroke="#000000" points="567.5764,-831.3657 575.0771,-823.883 564.5473,-825.055 567.5764,-831.3657"/>
</g>
<!-- brotli -->
<g id="node10" class="node">
<title>brotli</title>
<ellipse fill="none" stroke="#000000" cx="454" cy="-954" rx="31.9185" ry="18"/>
<text text-anchor="middle" x="454" y="-949.8" font-family="Times,serif" font-size="14.00" fill="#000000">brotli</text>
</g>
<!-- brotli&#45;&gt;build&#45;base -->
<g id="edge16" class="edge">
<title>brotli&#45;&gt;build&#45;base</title>
<path fill="none" stroke="#000000" d="M436.0117,-939.1143C424.0241,-928.7618 408.2765,-914.3023 396,-900 346.0612,-841.8207 326.9357,-828.153 301,-756 293.8672,-736.1565 291.1872,-712.437 290.2531,-694.3312"/>
<polygon fill="#000000" stroke="#000000" points="293.7432,-693.995 289.8785,-684.1302 286.7479,-694.252 293.7432,-693.995"/>
</g>
<!-- brotli&#45;&gt;busybox -->
<g id="edge17" class="edge">
<title>brotli&#45;&gt;busybox</title>
<path fill="none" stroke="#000000" d="M428.5772,-942.8887C408.8942,-933.4373 381.7476,-918.471 362,-900 324.1578,-864.6042 231.7842,-690.6683 230,-684 225.8645,-668.5437 220.4394,-660.8294 230,-648 245.641,-627.0114 312.1635,-611.2002 360.0243,-602.2712"/>
<polygon fill="#000000" stroke="#000000" points="360.7161,-605.7029 369.929,-600.4709 359.4642,-598.8157 360.7161,-605.7029"/>
</g>
<!-- brotli&#45;&gt;ca&#45;certificates&#45;bundle -->
<g id="edge18" class="edge">
<title>brotli&#45;&gt;ca&#45;certificates&#45;bundle</title>
<path fill="none" stroke="#000000" d="M482.0964,-945.1798C527.173,-929.4628 614.9429,-892.1006 658,-828 702.8302,-761.2598 699.2591,-724.9611 676,-648 665.3468,-612.7501 664.4298,-598.1345 635,-576 612.8037,-559.3059 548.7833,-544.8346 494.841,-535.0863"/>
<polygon fill="#000000" stroke="#000000" points="495.3562,-531.6231 484.8984,-533.3216 494.1328,-538.5154 495.3562,-531.6231"/>
</g>
<!-- brotli&#45;&gt;wolfi&#45;base -->
<g id="edge20" class="edge">
<title>brotli&#45;&gt;wolfi&#45;base</title>
<path fill="none" stroke="#000000" d="M474.4615,-940.0286C487.1795,-930.2726 502.806,-916.1382 512,-900 550.2038,-832.941 559.8188,-740.1059 562.218,-694.1291"/>
<polygon fill="#000000" stroke="#000000" points="565.7201,-694.1577 562.6669,-684.0123 558.727,-693.8473 565.7201,-694.1577"/>
</g>
<!-- brotli&#45;&gt;autoconf -->
<g id="edge14" class="edge">
<title>brotli&#45;&gt;autoconf</title>
<path fill="none" stroke="#000000" d="M479.2285,-942.9252C498.7428,-933.494 525.6152,-918.5369 545,-900 564.1469,-881.6907 580.1842,-856.0523 590.6824,-836.8212"/>
<polygon fill="#000000" stroke="#000000" points="593.7908,-838.4303 595.3805,-827.9554 587.6055,-835.1526 593.7908,-838.4303"/>
</g>
<!-- brotli&#45;&gt;automake -->
<g id="edge15" class="edge">
<title>brotli&#45;&gt;automake</title>
<path fill="none" stroke="#000000" d="M454,-935.8314C454,-928.131 454,-918.9743 454,-910.4166"/>
<polygon fill="#000000" stroke="#000000" points="457.5001,-910.4132 454,-900.4133 450.5001,-910.4133 457.5001,-910.4132"/>
</g>
<!-- libtool -->
<g id="node11" class="node">
<title>libtool</title>
<ellipse fill="none" stroke="#000000" cx="160" cy="-810" rx="36.0148" ry="18"/>
<text text-anchor="middle" x="160" y="-805.8" font-family="Times,serif" font-size="14.00" fill="#000000">libtool</text>
</g>
<!-- brotli&#45;&gt;libtool -->
<g id="edge19" class="edge">
<title>brotli&#45;&gt;libtool</title>
<path fill="none" stroke="#000000" d="M422.5822,-949.9242C365.8327,-942.0727 249.0499,-923.5276 216,-900 194.2265,-884.4998 179.1343,-857.62 170.1505,-837.2611"/>
<polygon fill="#000000" stroke="#000000" points="173.3116,-835.748 166.2284,-827.869 166.8522,-838.4455 173.3116,-835.748"/>
</g>
<!-- libtool&#45;&gt;build&#45;base -->
<g id="edge31" class="edge">
<title>libtool&#45;&gt;build&#45;base</title>
<path fill="none" stroke="#000000" d="M174.9127,-793.4814C197.5903,-768.3615 240.9069,-720.3801 267.4466,-690.9823"/>
<polygon fill="#000000" stroke="#000000" points="270.353,-692.9859 274.4561,-683.2178 265.1571,-688.2951 270.353,-692.9859"/>
</g>
<!-- libtool&#45;&gt;busybox -->
<g id="edge32" class="edge">
<title>libtool&#45;&gt;busybox</title>
<path fill="none" stroke="#000000" d="M158.5078,-791.8539C156.8347,-758.5576 158.3795,-687.5046 197,-648 219.2537,-625.2369 302.772,-609.2741 358.6518,-600.8735"/>
<polygon fill="#000000" stroke="#000000" points="359.3572,-604.3076 368.7432,-599.393 358.341,-597.3817 359.3572,-604.3076"/>
</g>
<!-- libtool&#45;&gt;ca&#45;certificates&#45;bundle -->
<g id="edge33" class="edge">
<title>libtool&#45;&gt;ca&#45;certificates&#45;bundle</title>
<path fill="none" stroke="#000000" d="M127.229,-802.0273C89.6619,-792.1468 31.6272,-774.3575 19,-756 9.9324,-742.8175 13.0888,-734.868 19,-720 51.7496,-637.6274 79.3987,-618.8464 157,-576 185.6933,-560.1575 263.735,-544.8907 325.8096,-534.6566"/>
<polygon fill="#000000" stroke="#000000" points="326.7093,-538.0563 336.017,-532.9949 325.5845,-531.1472 326.7093,-538.0563"/>
</g>
<!-- libtool&#45;&gt;m4 -->
<g id="edge35" class="edge">
<title>libtool&#45;&gt;m4</title>
<path fill="none" stroke="#000000" d="M191.2451,-800.5873C236.04,-787.0926 318.2167,-762.3364 364.663,-748.3442"/>
<polygon fill="#000000" stroke="#000000" points="365.7157,-751.6825 374.2811,-745.4467 363.6965,-744.98 365.7157,-751.6825"/>
</g>
<!-- help2man -->
<g id="node15" class="node">
<title>help2man</title>
<ellipse fill="none" stroke="#000000" cx="77" cy="-738" rx="49.2396" ry="18"/>
<text text-anchor="middle" x="77" y="-733.8" font-family="Times,serif" font-size="14.00" fill="#000000">help2man</text>
</g>
<!-- libtool&#45;&gt;help2man -->
<g id="edge34" class="edge">
<title>libtool&#45;&gt;help2man</title>
<path fill="none" stroke="#000000" d="M141.9902,-794.3771C130.8828,-784.7417 116.4279,-772.2025 103.9716,-761.397"/>
<polygon fill="#000000" stroke="#000000" points="105.9772,-758.5035 96.1298,-754.5945 101.3902,-763.7912 105.9772,-758.5035"/>
</g>
<!-- ca&#45;certificates&#45;&gt;perl -->
<g id="edge25" class="edge">
<title>ca&#45;certificates&#45;&gt;perl</title>
<path fill="none" stroke="#000000" d="M286.1338,-433.6661C272.5667,-424.4224 257.5316,-411.5832 249,-396 225.9308,-353.8632 225.0924,-296.4342 227.152,-262.4829"/>
<polygon fill="#000000" stroke="#000000" points="230.6554,-262.5636 227.898,-252.3339 223.6743,-262.0504 230.6554,-262.5636"/>
</g>
<!-- openssl&#45;dev -->
<g id="node14" class="node">
<title>openssl&#45;dev</title>
<ellipse fill="none" stroke="#000000" cx="315" cy="-378" rx="57.3243" ry="18"/>
<text text-anchor="middle" x="315" y="-373.8" font-family="Times,serif" font-size="14.00" fill="#000000">openssl&#45;dev</text>
</g>
<!-- ca&#45;certificates&#45;&gt;openssl&#45;dev -->
<g id="edge24" class="edge">
<title>ca&#45;certificates&#45;&gt;openssl&#45;dev</title>
<path fill="none" stroke="#000000" d="M315,-431.8314C315,-424.131 315,-414.9743 315,-406.4166"/>
<polygon fill="#000000" stroke="#000000" points="318.5001,-406.4132 315,-396.4133 311.5001,-406.4133 318.5001,-406.4132"/>
</g>
<!-- openssl -->
<g id="node16" class="node">
<title>openssl</title>
<ellipse fill="none" stroke="#000000" cx="307" cy="-306" rx="40.007" ry="18"/>
<text text-anchor="middle" x="307" y="-301.8" font-family="Times,serif" font-size="14.00" fill="#000000">openssl</text>
</g>
<!-- openssl&#45;dev&#45;&gt;openssl -->
<g id="edge40" class="edge">
<title>openssl&#45;dev&#45;&gt;openssl</title>
<path fill="none" stroke="#000000" d="M312.9813,-359.8314C312.1257,-352.131 311.1083,-342.9743 310.1574,-334.4166"/>
<polygon fill="#000000" stroke="#000000" points="313.6289,-333.9656 309.0459,-324.4133 306.6717,-334.7386 313.6289,-333.9656"/>
</g>
<!-- help2man&#45;&gt;build&#45;base -->
<g id="edge27" class="edge">
<title>help2man&#45;&gt;build&#45;base</title>
<path fill="none" stroke="#000000" d="M113.1325,-725.7862C149.0218,-713.6546 204.2082,-695 243.3815,-681.7584"/>
<polygon fill="#000000" stroke="#000000" points="244.6217,-685.0338 252.9743,-678.5157 242.3801,-678.4024 244.6217,-685.0338"/>
</g>
<!-- help2man&#45;&gt;busybox -->
<g id="edge28" class="edge">
<title>help2man&#45;&gt;busybox</title>
<path fill="none" stroke="#000000" d="M87.2768,-720.0216C100.1242,-699.2671 124.1058,-665.7207 154,-648 188.11,-627.7802 294.5182,-610.1072 359.2278,-600.8551"/>
<polygon fill="#000000" stroke="#000000" points="359.8246,-604.3057 369.2378,-599.4434 358.847,-597.3743 359.8246,-604.3057"/>
</g>
<!-- help2man&#45;&gt;ca&#45;certificates&#45;bundle -->
<g id="edge29" class="edge">
<title>help2man&#45;&gt;ca&#45;certificates&#45;bundle</title>
<path fill="none" stroke="#000000" d="M79.742,-719.8481C83.6415,-699.8708 92.5981,-667.9515 112,-648 171.7665,-586.5405 266.1421,-553.6246 332.8558,-537.0353"/>
<polygon fill="#000000" stroke="#000000" points="334.0045,-540.3586 342.9029,-534.6079 332.3606,-533.5543 334.0045,-540.3586"/>
</g>
<!-- help2man&#45;&gt;perl -->
<g id="edge30" class="edge">
<title>help2man&#45;&gt;perl</title>
<path fill="none" stroke="#000000" d="M68.9192,-720.2344C57.4958,-693.4535 38,-640.8802 38,-594 38,-594 38,-594 38,-378 38,-300.5301 139.2767,-259.6324 194.7196,-243.0476"/>
<polygon fill="#000000" stroke="#000000" points="195.8627,-246.3607 204.5039,-240.2304 193.9258,-239.634 195.8627,-246.3607"/>
</g>
<!-- openssl&#45;&gt;perl -->
<g id="edge39" class="edge">
<title>openssl&#45;&gt;perl</title>
<path fill="none" stroke="#000000" d="M289.5275,-289.6621C278.8562,-279.6837 265.0757,-266.7981 253.4616,-255.9381"/>
<polygon fill="#000000" stroke="#000000" points="255.5267,-253.0774 245.8319,-248.8039 250.7457,-258.1904 255.5267,-253.0774"/>
</g>
<!-- zlib -->
<g id="node18" class="node">
<title>zlib</title>
<ellipse fill="none" stroke="#000000" cx="159" cy="-90" rx="27" ry="18"/>
<text text-anchor="middle" x="159" y="-85.8" font-family="Times,serif" font-size="14.00" fill="#000000">zlib</text>
</g>
<!-- zlib&#45;dev&#45;&gt;zlib -->
<g id="edge45" class="edge">
<title>zlib&#45;dev&#45;&gt;zlib</title>
<path fill="none" stroke="#000000" d="M159,-143.8314C159,-136.131 159,-126.9743 159,-118.4166"/>
<polygon fill="#000000" stroke="#000000" points="162.5001,-118.4132 159,-108.4133 155.5001,-118.4133 162.5001,-118.4132"/>
</g>
<!-- zlib&#45;&gt;wolfi&#45;baselayout -->
<g id="edge44" class="edge">
<title>zlib&#45;&gt;wolfi&#45;baselayout</title>
<path fill="none" stroke="#000000" d="M159,-71.8314C159,-64.131 159,-54.9743 159,-46.4166"/>
<polygon fill="#000000" stroke="#000000" points="162.5001,-46.4132 159,-36.4133 155.5001,-46.4133 162.5001,-46.4132"/>
</g>
</g>
</svg>
